<?xml version="1.0" encoding="UTF-8"?>
<svg width="76px" height="76px" viewBox="0 0 76 76" version="1.1" xmlns="http://www.w3.org/2000/svg" xmlns:xlink="http://www.w3.org/1999/xlink">
    <!-- Generator: Sketch 43.2 (39069) - http://www.bohemiancoding.com/sketch -->
    <title>Artboard</title>
    <desc>Created with Sketch.</desc>
    <defs></defs>
    <g id="Page-1" stroke="none" stroke-width="1" fill="none" fill-rule="evenodd">
        <g id="Artboard" fill-rule="nonzero" fill="#FFFFFF">
            <g id="noun_Camping_1839344-Copy-2" transform="translate(10.000000, 10.000000)">
                <path d="M55.1793779,7.65898434 C55.3165015,7.80732421 55.502501,7.88217773 55.6885004,7.88217773 C55.8582079,7.88217773 56.0279154,7.81997069 56.1623238,7.69453125 C56.4433594,7.43134763 56.4589725,6.98837888 56.1976229,6.70537112 L50.9441573,1.02094727 C50.9413571,1.01791382 50.9371144,1.01710203 50.9342718,1.01415405 C50.8078397,0.88170775 50.6320652,0.79775388 50.4350347,0.79775388 C50.2380043,0.79775388 50.0622298,0.88170775 49.9357977,1.01415405 C49.932955,1.01710203 49.9287124,1.01791382 49.9259122,1.02094727 L44.6724466,6.70537112 C44.411097,6.98837895 44.4267101,7.4313477 44.7077457,7.69453125 C44.9894601,7.95805661 45.4286632,7.94335941 45.6906916,7.65898441 L49.7399127,3.27736213 L49.7399127,6.83042612 L44.6724465,12.3135743 C44.4110969,12.5965821 44.4267101,13.0395509 44.7077456,13.3027344 C44.9894601,13.5662598 45.4286631,13.5515626 45.6906915,13.2671876 L49.7399126,8.88556529 L49.7399126,12.4389283 L44.6724464,17.9217774 C44.4110969,18.2047853 44.42671,18.647754 44.7077456,18.9109376 C44.98946,19.1741212 45.4286631,19.1594239 45.6906914,18.8753907 L49.7399126,14.4940675 L49.7399126,24.8366699 L44.939863,24.8366699 L44.9521244,21.6675292 C44.953482,21.280957 44.6439355,20.9661621 44.2597177,20.9647949 L44.2570024,20.9647949 C43.8741423,20.9647949 43.5632381,21.2765136 43.5618805,21.6620606 L43.5571287,22.9755859 L29.106195,0.32163082 C28.8495973,-0.0789551 28.1924898,-0.0789551 27.935892,0.32163082 L13.5032869,22.9472168 L13.5087176,21.5075684 C13.5100752,21.1209961 13.1998499,20.8062012 12.8163109,20.804834 L12.8135956,20.804834 C12.4307355,20.804834 12.1198313,21.1165528 12.1184737,21.5020997 L12.106085,24.83667 L7.32525483,24.83667 L7.32525483,14.4940673 L11.374476,18.8753906 C11.5115996,19.0237305 11.6975991,19.098584 11.8835985,19.098584 C12.053306,19.098584 12.2230135,19.0363769 12.3574218,18.9109375 C12.6384575,18.6477539 12.6540706,18.2047851 12.392721,17.9217774 L7.32525476,12.4389282 L7.32525476,8.88556522 L11.3744759,13.2671875 C11.6365043,13.5508789 12.0757073,13.565918 12.3574218,13.3027343 C12.6384574,13.0395507 12.6540705,12.596582 12.3927209,12.3135742 L7.32525469,6.83042605 L7.32525469,3.27736206 L11.3744758,7.65898434 C11.6365042,7.94267572 12.0757073,7.9577148 12.3574217,7.69453118 C12.6384574,7.43134756 12.6540704,6.98837881 12.3927208,6.70537105 L7.13925521,1.0209472 C7.13645505,1.01791375 7.13221238,1.01710196 7.12936975,1.01415398 C7.00293763,0.88170768 6.82716311,0.79775381 6.63013267,0.79775381 C6.43310223,0.79775381 6.25728525,0.88175038 6.1308532,1.01419668 C6.12801057,1.01714466 6.12381036,1.01795645 6.12101013,1.0209472 L0.868223374,6.70537105 C0.606873787,6.98837888 0.622486921,7.43134763 0.903522501,7.69453118 C1.03793086,7.81997062 1.20763835,7.88217766 1.37734585,7.88217766 C1.56334526,7.88217766 1.74934467,7.80732414 1.88646839,7.65898427 L5.93501072,3.27749016 L5.93501072,6.83042598 L0.868223374,12.3135741 C0.606873787,12.596582 0.622486921,13.0395507 0.903522501,13.3027343 C1.03793086,13.4281737 1.20763835,13.4903807 1.37734585,13.4903807 C1.56334526,13.4903807 1.74934467,13.4155272 1.88646839,13.2671874 L5.93501072,8.88569325 L5.93501072,12.4389708 L0.868223374,17.9217772 C0.606873787,18.2047851 0.622486921,18.6477538 0.903522501,18.9109374 C1.18591579,19.174121 1.62444001,19.1594237 1.88646839,18.8753905 L5.93501072,14.4941954 L5.93501072,24.8366699 L1.37734591,24.8366699 C0.9931281,24.8366699 0.682223963,25.1500976 0.682223963,25.5366699 C0.682223963,25.9232422 0.9931281,26.2366699 1.37734591,26.2366699 L55.6097561,26.2366699 C55.9939739,26.2366699 56.304878,25.9232422 56.304878,25.5366699 C56.304878,25.1500976 55.9939739,24.8366699 55.6097561,24.8366699 L51.1301568,24.8366699 L51.1301568,14.4940673 L55.1793779,18.8753906 C55.3165015,19.0237305 55.502501,19.098584 55.6885004,19.098584 C55.8582079,19.098584 56.0279154,19.0363769 56.1623238,18.9109375 C56.4433594,18.6477539 56.4589725,18.2047851 56.1976229,17.9217774 L51.1301567,12.4389282 L51.1301567,8.88556522 L55.1793778,13.2671875 C55.3165015,13.4155274 55.5025009,13.4903809 55.6885003,13.4903809 C55.8582078,13.4903809 56.0279153,13.4281738 56.1623237,13.3027344 C56.4433593,13.0395508 56.4589724,12.596582 56.1976228,12.3135743 L51.1301566,6.83042612 L51.1301566,3.27736213 L55.1793779,7.65898434 Z M43.0913667,24.8366699 L41.8424043,24.8366699 L41.8424043,22.8786865 L43.0913667,24.8366699 Z M28.5210437,1.99506839 L40.4521603,20.6992187 L40.4521603,24.8366699 L37.4944979,24.8366699 L37.4944979,22.0089843 C37.4944979,21.8004882 37.4014981,21.602246 37.2419732,21.4692871 C37.1618712,21.4026367 29.2304211,14.7054687 29.2304211,6.81030273 C29.2304211,6.42373046 28.919517,6.11030273 28.5352992,6.11030273 C28.1510814,6.11030273 27.8401772,6.42373046 27.8401772,6.81030273 C27.8401772,14.7054688 19.9087272,21.4026367 19.8286252,21.4692871 C19.6691002,21.6022461 19.5761005,21.8004882 19.5761005,22.0089843 L19.5761005,24.8366699 L16.5899272,24.8366699 L16.5899272,20.6992187 L28.5210437,1.99506839 Z M36.104254,24.8366699 L20.9663443,24.8366699 L20.9663443,22.3312988 C22.1227738,21.3121887 26.7627042,16.9529968 28.5352992,11.2143982 C30.3078941,16.9529968 34.9478246,21.3121887 36.1042541,22.3312988 L36.1042541,24.8366699 L36.104254,24.8366699 Z M15.1996832,22.8786865 L15.1996832,24.8366699 L13.9507208,24.8366699 L15.1996832,22.8786865 Z" id="Shape"></path>
                <path d="M55.6097561,52.415918 C54.2005049,52.415918 53.4626167,53.1295898 52.8693193,53.703125 C52.3303282,54.2236816 51.9413586,54.6 51.0914634,54.6 C50.2415683,54.6 49.8525986,54.2236816 49.3136076,53.703125 C48.7203101,53.1295899 47.9824219,52.415918 46.5731707,52.415918 C45.1645984,52.415918 44.427389,53.1295898 43.8347704,53.703125 C43.2964582,54.2236816 42.9074886,54.6 42.0582722,54.6 C41.208377,54.6 40.8194074,54.2236816 40.2810952,53.703125 C39.6884765,53.1295899 38.9505883,52.415918 37.542016,52.415918 C36.132086,52.415918 35.3941978,53.1295898 34.8009003,53.703125 C34.2619093,54.2236816 33.8729397,54.6 33.0230445,54.6 C32.1724704,54.6 31.7835008,54.2236816 31.2445098,53.7027832 C30.6512123,53.1295898 29.913324,52.415918 28.5040729,52.415918 C27.0948218,52.415918 26.3569335,53.1295898 25.7636361,53.7027832 C25.2246451,54.2236816 24.8356755,54.6 23.9851015,54.6 C23.1345274,54.6 22.7455578,54.2236816 22.2065667,53.7027832 C21.6132693,53.1295898 20.8747022,52.415918 19.4654511,52.415918 C18.0561999,52.415918 17.3176328,53.1295898 16.7250142,53.703125 C16.1860232,54.2236816 15.7970536,54.6 14.9478372,54.6 C14.0965844,54.6 13.706936,54.2236816 13.1679449,53.7027832 C12.5746474,53.1292481 11.8360804,52.415918 10.4261504,52.415918 C9.01622045,52.415918 8.27697452,53.1292481 7.68299823,53.7024414 C7.14332842,54.2236816 6.75367996,54.6 5.9017483,54.6 C5.04981664,54.6 4.66016819,54.2236816 4.1204983,53.7024414 C3.52652202,53.129248 2.78727609,52.415918 1.37734612,52.415918 C0.993128309,52.415918 0.682224172,52.7293457 0.682224172,53.115918 C0.682224172,53.5024902 0.993128309,53.815918 1.37734612,53.815918 C2.228599,53.815918 2.61892624,54.1922364 3.15791727,54.7131348 C3.75189355,55.2863282 4.49113948,56 5.9017483,56 C7.31235712,56 8.05160298,55.2863282 8.64557927,54.7131348 C9.1845703,54.1922364 9.57489761,53.815918 10.4261504,53.815918 C11.2767244,53.815918 11.6663729,54.1922364 12.2053639,54.7131348 C12.7986614,55.2863282 13.5379073,56 14.9478372,56 C16.3564096,56 17.0949766,55.2863282 17.6875952,54.7131348 C18.2265862,54.1922364 18.6155558,53.815918 19.4654511,53.815918 C20.3160251,53.815918 20.7049947,54.1922364 21.2439858,54.7131348 C21.8372833,55.2863282 22.5758503,56 23.9851015,56 C25.3950314,56 26.1329197,55.2863282 26.7262171,54.712793 C27.2652082,54.1922364 27.6541778,53.815918 28.504073,53.815918 C29.3539682,53.815918 29.7429378,54.1922364 30.2819289,54.712793 C30.8752263,55.2863282 31.6131145,56 33.0230445,56 C34.4322956,56 35.1701839,55.2863282 35.7634813,54.7131348 C36.3024723,54.1922364 36.6914419,53.815918 37.542016,53.815918 C38.3912324,53.815918 38.780202,54.1922364 39.3185142,54.712793 C39.9111328,55.2863282 40.6490211,56 42.0582722,56 C43.4668445,56 44.2047327,55.2863282 44.7980302,54.7124512 C45.3356636,54.1918945 45.7246332,53.815918 46.5731707,53.815918 C47.4230659,53.815918 47.8120356,54.1922364 48.3510266,54.712793 C48.944324,55.2863282 49.6822122,56 51.0914634,56 C52.5007146,56 53.2386028,55.2863282 53.8319002,54.712793 C54.3708913,54.1922364 54.7598609,53.815918 55.6097561,53.815918 C55.9939739,53.815918 56.304878,53.5024902 56.304878,53.115918 C56.304878,52.7293457 55.9939739,52.415918 55.6097561,52.415918 Z" id="Shape"></path>
                <path d="M55.6097561,44.927832 C54.2005049,44.927832 53.4626167,45.6415039 52.8693193,46.2150391 C52.3303282,46.7355957 51.9413586,47.1119141 51.0914634,47.1119141 C50.2415682,47.1119141 49.8525986,46.7355957 49.3136076,46.2150391 C48.7203101,45.6415039 47.9824219,44.927832 46.5731707,44.927832 C45.1645984,44.927832 44.427389,45.6415039 43.8347704,46.2150391 C43.2964582,46.7355957 42.9074886,47.1119141 42.0582722,47.1119141 C41.208377,47.1119141 40.8194074,46.7355957 40.2810952,46.2150391 C39.6884765,45.641504 38.9505883,44.927832 37.542016,44.927832 C36.132086,44.927832 35.3941978,45.6415039 34.8009003,46.2150391 C34.2619093,46.7355957 33.8729397,47.1119141 33.0230445,47.1119141 C32.1724704,47.1119141 31.7835008,46.7355957 31.2445098,46.2146973 C30.6512123,45.6415039 29.913324,44.927832 28.5040729,44.927832 C27.0948218,44.927832 26.3569335,45.6415039 25.7636361,46.2146973 C25.2246451,46.7355957 24.8356755,47.1119141 23.9851014,47.1119141 C23.1345273,47.1119141 22.7455578,46.7355957 22.2065667,46.2146973 C21.6132692,45.6415039 20.8747022,44.927832 19.465451,44.927832 C18.0561998,44.927832 17.3176327,45.6415039 16.7250142,46.2150391 C16.1860231,46.7355957 15.7970535,47.1119141 14.9478372,47.1119141 C14.0965843,47.1119141 13.7069359,46.7355957 13.1679448,46.2146973 C12.5746474,45.6411621 11.8360803,44.927832 10.4261503,44.927832 C9.01622038,44.927832 8.27697445,45.6411621 7.68299816,46.2143555 C7.14332828,46.7355957 6.75367983,47.1119141 5.90174816,47.1119141 C5.0498165,47.1119141 4.66016805,46.7355957 4.12049816,46.2143555 C3.52652188,45.6411621 2.78727595,44.927832 1.37734598,44.927832 C0.99312817,44.927832 0.682224033,45.2412598 0.682224033,45.627832 C0.682224033,46.0144043 0.99312817,46.327832 1.37734598,46.327832 C2.22859886,46.327832 2.6189261,46.7041504 3.15791713,47.2250489 C3.75189341,47.7982422 4.49113934,48.5119141 5.90174809,48.5119141 C7.31235685,48.5119141 8.05160277,47.7982422 8.64557906,47.2250489 C9.18457009,46.7041504 9.5748974,46.327832 10.4261502,46.327832 C11.2767242,46.327832 11.6663727,46.7041504 12.2053637,47.2250489 C12.7986611,47.7982422 13.5379071,48.5119141 14.947837,48.5119141 C16.3564093,48.5119141 17.0949764,47.7982422 17.687595,47.2250489 C18.226586,46.7041504 18.6155556,46.327832 19.4654509,46.327832 C20.3160249,46.327832 20.7049945,46.7041504 21.2439856,47.2250489 C21.837283,47.7982422 22.5758501,48.5119141 23.9851012,48.5119141 C25.3950312,48.5119141 26.1329195,47.7982422 26.7262169,47.224707 C27.265208,46.7041504 27.6541776,46.327832 28.5040728,46.327832 C29.353968,46.327832 29.7429376,46.7041504 30.2819286,47.224707 C30.8752261,47.7982422 31.6131144,48.5119141 33.0230443,48.5119141 C34.4322955,48.5119141 35.1701837,47.7982422 35.7634812,47.2250489 C36.3024722,46.7041504 36.6914418,46.327832 37.5420159,46.327832 C38.3912322,46.327832 38.7802018,46.7041504 39.3185141,47.224707 C39.9111327,47.7982422 40.6490209,48.5119141 42.0582721,48.5119141 C43.4668444,48.5119141 44.2047326,47.7982422 44.79803,47.2243652 C45.3356636,46.7038086 45.7246332,46.327832 46.5731707,46.327832 C47.4230659,46.327832 47.8120356,46.7041504 48.3510266,47.224707 C48.944324,47.7982422 49.6822123,48.5119141 51.0914634,48.5119141 C52.5007145,48.5119141 53.2386028,47.7982422 53.8319002,47.224707 C54.3708913,46.7041504 54.7598609,46.327832 55.6097561,46.327832 C55.9939739,46.327832 56.304878,46.0144043 56.304878,45.627832 C56.304878,45.2412598 55.9939739,44.927832 55.6097561,44.927832 Z" id="Shape"></path>
                <path d="M55.6097561,37.4400879 C54.2005049,37.4400879 53.4626167,38.1537597 52.8693193,38.7272949 C52.3303282,39.2478515 51.9413586,39.6241699 51.0914634,39.6241699 C50.2415682,39.6241699 49.8525986,39.2478515 49.3136076,38.7272949 C48.7203101,38.1537598 47.9824219,37.4400879 46.5731707,37.4400879 C45.1645984,37.4400879 44.427389,38.1537597 43.8347704,38.7272949 C43.2964582,39.2478515 42.9074886,39.6241699 42.0582722,39.6241699 C41.208377,39.6241699 40.8194074,39.2478515 40.2810952,38.7272949 C39.6884765,38.1537598 38.9505883,37.4400879 37.542016,37.4400879 C36.132086,37.4400879 35.3941978,38.1537597 34.8009003,38.7272949 C34.2619093,39.2478515 33.8729397,39.6241699 33.0230445,39.6241699 C32.1724704,39.6241699 31.7835008,39.2478515 31.2445098,38.7269531 C30.6512123,38.1537597 29.913324,37.4400879 28.5040729,37.4400879 C27.0948218,37.4400879 26.3569335,38.1537597 25.7636361,38.7269531 C25.2246451,39.2478515 24.8356755,39.6241699 23.9851014,39.6241699 C23.1345273,39.6241699 22.7455578,39.2478515 22.2065667,38.7269531 C21.6132692,38.1537597 20.8747022,37.4400879 19.465451,37.4400879 C18.0561998,37.4400879 17.3176327,38.1537597 16.7250142,38.7272949 C16.1860231,39.2478515 15.7970535,39.6241699 14.9478372,39.6241699 C14.0965843,39.6241699 13.7069359,39.2478515 13.1679448,38.7269531 C12.5746474,38.153418 11.8360803,37.4400879 10.4261503,37.4400879 C9.01622038,37.4400879 8.27697445,38.153418 7.68299816,38.7266113 C7.14332828,39.2478515 6.75367983,39.6241699 5.90174816,39.6241699 C5.0498165,39.6241699 4.66016805,39.2478515 4.12049816,38.7266113 C3.52652188,38.1534179 2.78727595,37.4400879 1.37734598,37.4400879 C0.99312817,37.4400879 0.682224033,37.7535156 0.682224033,38.1400879 C0.682224033,38.5266601 0.99312817,38.8400879 1.37734598,38.8400879 C2.22859886,38.8400879 2.6189261,39.2164062 3.15791713,39.7373047 C3.75189341,40.3104981 4.49113934,41.0241699 5.90174809,41.0241699 C7.31235685,41.0241699 8.05160277,40.3104981 8.64557906,39.7373047 C9.18457009,39.2164062 9.5748974,38.8400879 10.4261502,38.8400879 C11.2767242,38.8400879 11.6663727,39.2164062 12.2053637,39.7373047 C12.7986611,40.3104981 13.5379071,41.0241699 14.947837,41.0241699 C16.3564093,41.0241699 17.0949764,40.3104981 17.687595,39.7373047 C18.226586,39.2164062 18.6155556,38.8400879 19.4654509,38.8400879 C20.3160249,38.8400879 20.7049945,39.2164062 21.2439856,39.7373047 C21.837283,40.3104981 22.5758501,41.0241699 23.9851012,41.0241699 C25.3950312,41.0241699 26.1329195,40.3104981 26.7262169,39.7369629 C27.265208,39.2164062 27.6541776,38.8400879 28.5040728,38.8400879 C29.353968,38.8400879 29.7429376,39.2164062 30.2819286,39.7369629 C30.8752261,40.310498 31.6131144,41.0241699 33.0230443,41.0241699 C34.4322955,41.0241699 35.1701837,40.3104981 35.7634812,39.7373047 C36.3024722,39.2164062 36.6914418,38.8400879 37.5420159,38.8400879 C38.3912322,38.8400879 38.7802018,39.2164062 39.3185141,39.7369629 C39.9111327,40.310498 40.6490209,41.0241699 42.0582721,41.0241699 C43.4668444,41.0241699 44.2047326,40.3104981 44.79803,39.736621 C45.3356636,39.2160644 45.7246332,38.8400879 46.5731707,38.8400879 C47.4230659,38.8400879 47.8120356,39.2164062 48.3510266,39.7369629 C48.944324,40.3104981 49.6822122,41.0241699 51.0914634,41.0241699 C52.5007146,41.0241699 53.2386028,40.3104981 53.8319002,39.7369629 C54.3708913,39.2164062 54.7598609,38.8400879 55.6097561,38.8400879 C55.9939739,38.8400879 56.304878,38.5266601 56.304878,38.1400879 C56.304878,37.7535156 55.9939739,37.4400879 55.6097561,37.4400879 Z" id="Shape"></path>
                <path d="M55.6097561,29.9520019 C54.2005049,29.9520019 53.4626167,30.6656738 52.8693193,31.239209 C52.3303282,31.7597656 51.9413586,32.136084 51.0914634,32.136084 C50.2415682,32.136084 49.8525986,31.7597656 49.3136076,31.239209 C48.7203101,30.6656739 47.9824219,29.9520019 46.5731707,29.9520019 C45.1645984,29.9520019 44.427389,30.6656738 43.8347704,31.239209 C43.2964582,31.7597656 42.9074886,32.136084 42.0582722,32.136084 C41.208377,32.136084 40.8194074,31.7597656 40.2810952,31.239209 C39.6884765,30.6656739 38.9505883,29.9520019 37.542016,29.9520019 C36.132086,29.9520019 35.3941978,30.6656738 34.8009003,31.239209 C34.2619093,31.7597656 33.8729397,32.136084 33.0230445,32.136084 C32.1724704,32.136084 31.7835008,31.7597656 31.2445098,31.2388672 C30.6512123,30.6656738 29.913324,29.9520019 28.5040729,29.9520019 C27.0948218,29.9520019 26.3569335,30.6656738 25.7636361,31.2388672 C25.2246451,31.7597656 24.8356755,32.136084 23.9851014,32.136084 C23.1345273,32.136084 22.7455578,31.7597656 22.2065667,31.2388672 C21.6132692,30.6656738 20.8747022,29.9520019 19.465451,29.9520019 C18.0561998,29.9520019 17.3176327,30.6656738 16.7250142,31.239209 C16.1860231,31.7597656 15.7970535,32.136084 14.9478372,32.136084 C14.0965843,32.136084 13.7069359,31.7597656 13.1679448,31.2388672 C12.5746474,30.665332 11.8360803,29.9520019 10.4261503,29.9520019 C9.01622038,29.9520019 8.27697445,30.665332 7.68299816,31.2385254 C7.14332828,31.7597656 6.75367983,32.136084 5.90174816,32.136084 C5.0498165,32.136084 4.66016805,31.7597656 4.12049816,31.2385254 C3.52652188,30.665332 2.78727595,29.9520019 1.37734598,29.9520019 C0.99312817,29.9520019 0.682224033,30.2654297 0.682224033,30.6520019 C0.682224033,31.0385742 0.99312817,31.3520019 1.37734598,31.3520019 C2.22859886,31.3520019 2.6189261,31.7283203 3.15791713,32.2492187 C3.75189341,32.8224121 4.49113934,33.536084 5.90174809,33.536084 C7.31235685,33.536084 8.05160277,32.8224121 8.64557906,32.2492187 C9.18457009,31.7283203 9.5748974,31.3520019 10.4261502,31.3520019 C11.2767242,31.3520019 11.6663727,31.7283203 12.2053637,32.2492187 C12.7986611,32.8224121 13.5379071,33.536084 14.947837,33.536084 C16.3564093,33.536084 17.0949764,32.8224121 17.687595,32.2492187 C18.226586,31.7283203 18.6155556,31.3520019 19.4654509,31.3520019 C20.3160249,31.3520019 20.7049945,31.7283203 21.2439856,32.2492187 C21.837283,32.8224121 22.5758501,33.536084 23.9851012,33.536084 C25.3950312,33.536084 26.1329195,32.8224121 26.7262169,32.2488769 C27.265208,31.7283203 27.6541776,31.3520019 28.5040728,31.3520019 C29.353968,31.3520019 29.7429376,31.7283203 30.2819286,32.2488769 C30.8752261,32.8224121 31.6131144,33.536084 33.0230443,33.536084 C34.4322955,33.536084 35.1701837,32.8224121 35.7634812,32.2492187 C36.3024722,31.7283203 36.6914418,31.3520019 37.5420159,31.3520019 C38.3912322,31.3520019 38.7802018,31.7283203 39.3185141,32.2488769 C39.9111327,32.8224121 40.6490209,33.536084 42.0582721,33.536084 C43.4668444,33.536084 44.2047326,32.8224121 44.79803,32.2485351 C45.3356636,31.7279785 45.7246332,31.3520019 46.5731707,31.3520019 C47.4230659,31.3520019 47.8120356,31.7283203 48.3510266,32.2488769 C48.944324,32.8224121 49.6822123,33.536084 51.0914634,33.536084 C52.5007145,33.536084 53.2386028,32.8224121 53.8319002,32.2488769 C54.3708913,31.7283203 54.7598609,31.3520019 55.6097561,31.3520019 C55.9939739,31.3520019 56.304878,31.0385742 56.304878,30.6520019 C56.304878,30.2654297 55.9939739,29.9520019 55.6097561,29.9520019 Z" id="Shape"></path>
            </g>
        </g>
    </g>
</svg>